<svg id="884298db-c2d9-4200-8dd8-fec4ba692cf9" data-name="Layer 1" xmlns="http://www.w3.org/2000/svg" viewBox="0 0 262.93 43.93"><defs><style>.ffcaac80-a076-413f-9ded-55e693c451a4{fill:#f57c00;}</style></defs><title>ftcscores-logo-color</title><path class="ffcaac80-a076-413f-9ded-55e693c451a4" d="M.43,42.88a1.38,1.38,0,0,1-.43-1V2.13A1.51,1.51,0,0,1,.4,1,1.36,1.36,0,0,1,1.46.61H28a1.46,1.46,0,0,1,1.52,1.52v4.4a1.41,1.41,0,0,1-.42,1A1.48,1.48,0,0,1,28,8H8.48V19.46h18.3a1.48,1.48,0,0,1,1.1.43,1.41,1.41,0,0,1,.42,1v4.39a1.42,1.42,0,0,1-.42,1,1.48,1.48,0,0,1-1.1.43H8.48V41.85a1.38,1.38,0,0,1-.43,1,1.46,1.46,0,0,1-1.1.43H1.46A1.38,1.38,0,0,1,.43,42.88Z"/><path class="ffcaac80-a076-413f-9ded-55e693c451a4" d="M47,42.88a1.41,1.41,0,0,1-.42-1V8.23H35.25a1.43,1.43,0,0,1-1-.42,1.51,1.51,0,0,1-.42-1.1V2.13A1.55,1.55,0,0,1,34.18,1,1.38,1.38,0,0,1,35.25.61H66.42a1.46,1.46,0,0,1,1.1.43A1.49,1.49,0,0,1,68,2.13V6.71a1.52,1.52,0,0,1-.43,1.1,1.49,1.49,0,0,1-1.1.42H55.2V41.85a1.43,1.43,0,0,1-.4,1,1.37,1.37,0,0,1-1.07.43H48A1.4,1.4,0,0,1,47,42.88Z"/><path class="ffcaac80-a076-413f-9ded-55e693c451a4" d="M75.26,39.62Q71,35.32,70.74,27.39q-.06-1.65-.06-5.37t.06-5.49Q71,8.73,75.28,4.36T87.24,0a19.16,19.16,0,0,1,8.7,1.86A14.19,14.19,0,0,1,101.69,7a14.16,14.16,0,0,1,2.16,7.26v.12a1.06,1.06,0,0,1-.37.83,1.17,1.17,0,0,1-.81.33H97.23a1.38,1.38,0,0,1-1-.33A2.58,2.58,0,0,1,95.66,14a8.8,8.8,0,0,0-2.92-5.34,9,9,0,0,0-5.5-1.55q-8,0-8.36,9.76c0,1.09-.06,2.78-.06,5.06s0,4,.06,5.18q.33,9.77,8.36,9.76a9,9,0,0,0,5.47-1.55,8.73,8.73,0,0,0,3-5.34,2.63,2.63,0,0,1,.56-1.19,1.38,1.38,0,0,1,1-.33h5.44a1.19,1.19,0,0,1,.87.36,1.09,1.09,0,0,1,.31.92,13.87,13.87,0,0,1-7.91,12.35,19.16,19.16,0,0,1-8.7,1.86Q79.5,43.92,75.26,39.62Z"/><path class="ffcaac80-a076-413f-9ded-55e693c451a4" d="M134.55,32.63q.62-5.51-5.3-8.1l-5-2-1.63-.73q-7.48-3.55-6.93-10.46a10.94,10.94,0,0,1,2.16-6,12.47,12.47,0,0,1,5.07-4,15.35,15.35,0,0,1,6.69-1.3,12,12,0,0,1,6.07,1.74,10.25,10.25,0,0,1,4,4.53,12.61,12.61,0,0,1,1,6.47h-3.24a9.14,9.14,0,0,0-1.83-7,8,8,0,0,0-6.21-2.74,11.48,11.48,0,0,0-7.13,2.13,8.23,8.23,0,0,0-3.39,6,6.26,6.26,0,0,0,1.59,5.15c1.3,1.42,3.54,2.65,6.74,3.71q6.12,2.16,8.5,5.18a10.1,10.1,0,0,1,2.07,7.27,11.64,11.64,0,0,1-2.21,6.11,12.26,12.26,0,0,1-5.14,4,16.65,16.65,0,0,1-6.91,1.29,13.62,13.62,0,0,1-6.61-1.67,10.71,10.71,0,0,1-4.4-4.5,12.18,12.18,0,0,1-1.17-6.61h3.21a8.64,8.64,0,0,0,2.15,7.1,9.46,9.46,0,0,0,7,2.69,11.76,11.76,0,0,0,7.45-2.23A8.39,8.39,0,0,0,134.55,32.63Z"/><path class="ffcaac80-a076-413f-9ded-55e693c451a4" d="M153,41a7.78,7.78,0,0,0,5.5-1.92,9.84,9.84,0,0,0,3.17-5.5h3a12.35,12.35,0,0,1-4.15,7.61,10.94,10.94,0,0,1-7.66,2.76,9,9,0,0,1-5.8-2.1,11.47,11.47,0,0,1-3.39-5.6,22.22,22.22,0,0,1-.67-8.06l.11-1.26a25.34,25.34,0,0,1,1.35-6,18.53,18.53,0,0,1,2.79-5.14,13,13,0,0,1,4.15-3.55A10.67,10.67,0,0,1,156.85,11a8.85,8.85,0,0,1,7,3.29,11.57,11.57,0,0,1,2.43,8l-3,0a9.09,9.09,0,0,0-1.71-5.91A6.12,6.12,0,0,0,156.72,14,8,8,0,0,0,151,16.12a13.62,13.62,0,0,0-3.77,6.3A27.28,27.28,0,0,0,146,31.06c0,3.15.69,5.57,1.9,7.25A6.25,6.25,0,0,0,153,41Z"/><path class="ffcaac80-a076-413f-9ded-55e693c451a4" d="M169.33,27.17a22.56,22.56,0,0,1,2.53-8.43A15.5,15.5,0,0,1,177,12.93,11.53,11.53,0,0,1,183.65,11a9.29,9.29,0,0,1,6,2.16,11.92,11.92,0,0,1,3.64,5.71,20.43,20.43,0,0,1,.78,8l-.05.56q-.79,7.5-4.79,12a11.91,11.91,0,0,1-9.58,4.4A9.36,9.36,0,0,1,172,40q-2.87-3.84-2.82-10.14l.08-1.67Zm3.06,1a17.56,17.56,0,0,0,.46,6.43,9.73,9.73,0,0,0,2.57,4.62,6.53,6.53,0,0,0,4.4,1.76A8.46,8.46,0,0,0,185,39.35a12.48,12.48,0,0,0,3.89-4.71,20.4,20.4,0,0,0,2-6.74l.08-1q.47-5.66-1.57-9.24A6.66,6.66,0,0,0,183.49,14a8.77,8.77,0,0,0-7.29,3.62,18.73,18.73,0,0,0-3.76,10Z"/><path class="ffcaac80-a076-413f-9ded-55e693c451a4" d="M214.75,14.57a10.48,10.48,0,0,0-2.09-.26,8.52,8.52,0,0,0-5.51,2,9.83,9.83,0,0,0-3.35,5.17l-3.37,21.8h-3.11l5-31.7h3.09l-1,5a11.94,11.94,0,0,1,3.76-4.28A8.25,8.25,0,0,1,213,11a6.87,6.87,0,0,1,2.16.41Z"/><path class="ffcaac80-a076-413f-9ded-55e693c451a4" d="M225,43.9a9.3,9.3,0,0,1-5.94-2.13,11.9,11.9,0,0,1-3.67-5.62,19.29,19.29,0,0,1-.84-7.69l.08-1A22.88,22.88,0,0,1,217,19.1,15.67,15.67,0,0,1,222,13a10.8,10.8,0,0,1,6.49-2A8.3,8.3,0,0,1,233.9,13a10.68,10.68,0,0,1,3.2,5.21,19.32,19.32,0,0,1,.63,7.39l-.21,2.13H217.77l-.07.71a15.21,15.21,0,0,0,.42,6.11,9.6,9.6,0,0,0,2.67,4.62,6.57,6.57,0,0,0,4.47,1.78,8.34,8.34,0,0,0,4.56-1.09,14.61,14.61,0,0,0,3.75-3.13l1.84,1.67a13.09,13.09,0,0,1-4.57,4.17A11.7,11.7,0,0,1,225,43.9ZM228.35,14a7.84,7.84,0,0,0-6.15,2.7,18,18,0,0,0-4.08,8l16.56,0,.08-.44a11.25,11.25,0,0,0-1.32-7.17A5.9,5.9,0,0,0,228.35,14Z"/><path class="ffcaac80-a076-413f-9ded-55e693c451a4" d="M257.91,35.05q.42-4-4.43-5.86l-4.54-1.5c-4.17-1.56-6.13-4.17-5.91-7.82a8.41,8.41,0,0,1,3.29-6.43A11.23,11.23,0,0,1,253.69,11a9.5,9.5,0,0,1,6.8,2.63,8.61,8.61,0,0,1,2.43,6.84H259.8a5.81,5.81,0,0,0-1.59-4.63A6.43,6.43,0,0,0,253.56,14a8.15,8.15,0,0,0-5.07,1.57,5.77,5.77,0,0,0-2.32,4.15c-.26,2.52,1.13,4.28,4.17,5.3l3.29,1,1.77.68q6,2.49,5.62,8.11a8.67,8.67,0,0,1-3,6.26,11.56,11.56,0,0,1-7.11,2.74l-1.08,0a11.82,11.82,0,0,1-5.19-1.25,8.48,8.48,0,0,1-3.56-3.32A8.59,8.59,0,0,1,240,34.4l3.14,0A6.18,6.18,0,0,0,245,39.15a7.19,7.19,0,0,0,5,1.79,8.9,8.9,0,0,0,5.37-1.6A5.94,5.94,0,0,0,257.91,35.05Z"/></svg>